<svg version="1.2" xmlns="http://www.w3.org/2000/svg" viewBox="0 0 263 117" width="263" height="117">
	<title>default</title>
	<style>
		.s0 { opacity: .05;fill: #00a8ff } 
		.s1 { opacity: .09;fill: #00a8ff } 
		.s2 { opacity: .13;fill: #00a8ff } 
		.s3 { opacity: .18;fill: #00a8ff } 
		.s4 { opacity: .23;fill: #00a8ff } 
		.s5 { opacity: .3;fill: #00a8ff } 
		.s6 { opacity: .35;fill: #00a8ff } 
		.s7 { opacity: .41;fill: #00a8ff } 
		.s8 { opacity: .46;fill: #00a8ff } 
		.s9 { opacity: .52;fill: #00a8ff } 
		.s10 { opacity: .59;fill: #00a8ff } 
		.s11 { opacity: .65;fill: #00a8ff } 
		.s12 { opacity: .72;fill: #00a8ff } 
		.s13 { opacity: .77;fill: #00a8ff } 
		.s14 { opacity: .81;fill: #00a8ff } 
		.s15 { opacity: .85;fill: #00a8ff } 
		.s16 { opacity: .92;fill: #00a8ff } 
		.s17 { opacity: .98;fill: #00a8ff } 
		.s18 { opacity: 1;fill: #00a8ff } 
	</style>
	<g>
		<path id="Path 0" class="s0" d="m64 18h1v1h-1zm-5 1h1v1h-1zm25 1h1v1h-1zm-30 1h1v1h-1zm36 2h1v1h-1zm-42 1h1v1h-1zm45 1h1v1h-1zm1 1h1v1h-1zm6 5h1v1h-1zm-62 2h1v1h-1zm124 3h1v1h-1zm-127 1h1v1h-1zm-1 2h1v1h-1zm-1 2h1v1h-1zm96 3h1v1h-1zm89 0h1v1h-1zm-110 1h1v1h-1zm19 0h1v1h-1zm-95 4v-2 1zm93 0v-2 1zm-50-1h1v1h-1zm2 0h1v1h-1zm146 0h1v1h-1zm2 0h1v1h-1zm-104 1h1v1h-1zm-85 23v-21l1 21zm66-21h1v1h-1zm105 0h1v1h-1zm-90 2h1v1h-1zm91 0h1v1h-1zm-107 2h1v1h-1zm108 0h1v1h-1zm-74 3h1v1h-1zm-35 2v-1h1 1v1h-1zm112 0h1v1h-1zm8 2h1v1h-1zm-136 1h1v1h-1zm48 0h1v1h-1zm89 1h1v1h-1zm-149 1h1v1h-1zm52 0h1v1h-1zm86 0h1v1h-1zm5 0h1v1h-1zm7 1h1v1h-1zm-99 1h1v1h-1zm93 0h1v1h-1zm-87 1h1v1h-1zm-7 1h1v1h-1zm95 0h1v1h-1zm-77 2l-10-1h1 9zm55-1h1v1h-1zm-70 3h1v1h-1zm-92 2h1v1h-1zm95 0h1v1h-1zm91 0h1v1h-1zm-113 1h1v1h-1zm-72 1h1v1h-1zm70 2h1v1h-1zm42 2h1v1h-1zm55 0h1v1h-1zm-49 1h1v1h-1zm43 0h1v1h-1zm-157 1h1v1h-1zm122 0h1v1h-1zm27 0h1v1h-1zm-93 7h1v1h-1zm-30 8h1v1h-1zm11 0h1v1h-1z"/>
		<path id="Path 1" class="s1" d="m75 18h1v1h-1zm-31 9h1v1h-1zm-5 5h1v1h-1zm-3 4h1v1h-1zm127 0h1v1h-1zm21 1v-1l2 1h-1zm-31 0h1v1h-1zm41 0h1v1h-1zm-45 1h1v1h-1zm49 0h1v1h-1zm-54 1h1v1h-1zm59 0h1v1h-1zm-97 1h1v1h-1zm114 5h1v1h-1zm-142 3h1v1h-1zm47 1v-1h1 1 13v1zm64 0v-1h14v1zm17 0v-1h7v1zm18-1h1v1h-1zm-153 1h1v1h-1zm51 0h1v1h-1zm104 0h1v1h-1zm-106 1h1v1h-1zm-1 1h1v1h-1zm-36 1h1v1h-1zm-16 1h1v1h-1zm148 0h1v1h-1zm-119 3h1v1h-1zm123 0h1v1h-1zm-130 16v-15h1v1 1 1 12zm106-14h1v1h-1zm24 2h1v1h-1zm-120 1h1v1h-1zm112 2h1v1h-1zm-95 1h1v1h-1zm98 0h1v1h-1zm17 0h1v1h-1zm-100 1h1v1h-1zm-101 1h1v1h-1zm87 0h1v1h-1zm113 0h1v1h-1zm-148 1h1v1h-1zm48 0h1v1h-1zm93 0h1v1h-1zm-13 1h1v1h-1zm-179 1h1v1h-1zm44 1h1v1h-1zm131 1h1v1h-1zm12 0h1v1h-1zm5 1h1v1h-1zm-1 1h1v1h-1zm-89 4h1v1h-1zm81 0h1v1h-1zm-78 1h1v1h-1zm6 2h1v1h-1zm-40 2h1v1h-1zm-63 2h1v1h-1zm9 8h1v1h-1zm6 3h1v1h-1zm5 2h1v1h-1zm6 1h1v1h-1zm9 0h1v1h-1z"/>
		<path id="Path 2" class="s2" d="m65 18h1v1h-1zm15 1h1v1h-1zm-24 1h1v1h-1zm-14 9h1v1h-1zm60 5h1v1h-1zm62 2h1v1h-1zm19 0h1v1h-1zm-151 8h1v1h-1zm191 3h1v1h-1zm-149 1h1v1h-1zm129 0h1v1h-1zm19 0h1v1h-1zm-179 3l6-1v1h-5zm39-1h1v1h-1zm140 1h1v1h-1zm-127 1h1v1h-1zm23 0h1v1h-1zm111 0h1v1h-1zm-13 3h1v1h-1zm-144 3v-2h1v1 1zm31-2h1v1h-1zm26 0h1v1h-1zm-27 1h1v1h-1zm-5 1h1v1h-1zm31 0h1v1h-1zm68 1v-1h6v1zm-124 6v-2h1v1 1zm53-2h1v1h-1zm-95 2h1v1h-1zm182 0h1v1h-1zm-3 1h1v1h-1zm-136 2h1v1h-1zm46 0h1v1h-1zm-38 1h1v1h-1zm143 0h1v1h-1zm-28 2v-1h9v1zm-164 1h1v1h-1zm75 1h1v1h-1zm20 1h1v1h-1zm84 4h1v1h-1zm-175 2h1v1h-1zm169 0h1v1h-1zm-58 1h1v1h-1zm53 0h1v1h-1zm-47 1h1v1h-1zm41 0h1v1h-1zm-33 1h1v1h-1zm25 0h1v1h-1zm-146 2h1v1h-1zm2 2h1v1h-1zm1 1h1v1h-1zm1 1h1v1h-1zm3 2h1v1h-1zm3 2h1v1h-1zm7 3h1v1h-1zm23 1h1v1h-1zm-14 1h1v1h-1zm7 0h1v1h-1z"/>
		<path id="Path 3" class="s3" d="m74 18h1v1h-1zm-14 1h1v1h-1zm23 1h1v1h-1zm2 1h1v1h-1zm6 3h1v1h-1zm-48 4h1v1h-1zm122 9v-1h2v1zm16 0v-1h2v1zm-77 0h1v1h-1zm50 0h1v1h-1zm39 0h1v1h-1zm-88 2h1v1h-1zm35 1h1v1h-1zm67 0h1v1h-1zm-70 1h1v1h-1zm73 0h1v1h-1zm-76 1h1v1h-1zm79 0h1v1h-1zm-106 1h1v1h-1zm1 5h1v1h-1zm-27 1h1v1h-1zm107 23v-23h1v23zm-119-22h1v1h-1zm33 0h1v1h-1zm21 1v-1l9 1h-1zm100-1h1v1h-1zm4 0h1v1h-1zm-197 1h1v1h-1zm38 0h1v1h-1zm71 0h1v1h-1zm75 0h1v1h-1zm14 0h1v1h-1zm-90 2h1v1h-1zm83 0h1v1h-1zm-120 1h1v1h-1zm-29 4h1v1h-1zm28 0h1v1h-1zm-35 4v-3h1v3zm36-2h1v1h-1zm25 1h1v1h-1zm-54 1h1v1h-1zm28 2h1v1h-1zm29 5h1v1h-1zm-47 1h1v1h-1zm127 0h1v1h-1zm-4 1h1v1h-1zm15 3h1v1h-1zm-89 2h1v1h-1zm85 0h1v1h-1zm-131 19h1v1h-1zm-18 4v-1h1 1 2 2v1z"/>
		<path id="Path 4" class="s4" d="m66 18h1v1h-1zm7 0h1v1h-1zm6 1h1v1h-1zm-27 3h1v1h-1zm-2 1h1v1h-1zm-10 8h1v1h-1zm61 2h1v1h-1zm66 4v-1h3v1h-1zm11 0v-1h3v1h-2zm-23 0h1v1h-1zm37 0h1v1h-1zm-42 1h1v1h-1zm47 0h1v1h-1zm-65 5h1v1h-1zm-100 6v-1h1 16v1zm19 0v-1h6v1zm22-1h1v1h-1zm6 0h1v1h-1zm9 1v-1h6v1zm15 0v-1h5v1zm110 0h1v1h-1zm-7 1h1v1h-1zm-111 1h1v1h-1zm-65 1h1v1h-1zm36 2h1v1h-1zm15 0h1v1h-1zm137 0h1v1h-1zm-122 1h1v1h-1zm124 0h1v1h-1zm-104 1h1v1h-1zm94 1h1v1h-1zm-138 5v-3h1v3zm130-3h1v1h-1zm-68 1h1v1h-1zm78 1h1v1h-1zm-147 1h1v1h-1zm68 0h1v1h-1zm-51 1h1v1h-1zm-52 1h1v1h-1zm88 3h1v1h-1zm-87 1h1v1h-1zm91 0h1v1h-1zm106 0h1v1h-1zm-149 2h1v1h-1zm-3 2h1v1h-1zm29 5h1v1h-1zm35 2h1v1h-1zm67 0h1v1h-1zm-64 1h1v1h-1zm5 1h1v1h-1zm51 0h1v1h-1zm-45 1h1v1h-1zm39 0h1v1h-1zm-31 1h1v1h-1zm23 0h1v1h-1zm-94 9h1v1h-1zm-9 4h1v1h-1zm-22 1h1v1h-1zm19 0h1v1h-1z"/>
		<path id="Path 5" class="s5" d="m67 18h1v1h-1zm5 0h1v1h-1zm-25 7h1v1h-1zm48 2h1v1h-1zm-54 3h1v1h-1zm-4 5h1v1h-1zm133 2v-1h8v1zm-14 0h1v1h-1zm-121 1h1v1h-1zm110 1h1v1h-1zm-39 2h1v1h-1zm109 2h1v1h-1zm-85 1h1v1h-1zm-22 2h1v1h-1zm18 0h1v1h-1zm-32 2h1v1h-1zm94 0h1v1h-1zm33 1h1v1h-1zm-138 2h1v1h-1zm-10 1h1v1h-1zm44 2h1v1h-1zm13 0h1v1h-1zm-49 1h1v1h-1zm56 0h1v1h-1zm94 1h1v1h-1zm-128 2v-1h1v15h-1v-11-1-1zm-38 0h1v1h-1zm62 1h1v1h-1zm84 0h1v1h-1zm-110 2h1v1h-1zm15 2h1v1h-1zm105 0h1v1h-1zm1 2h1v1h-1zm-140 1h1v1h-1zm133 0h1v1h-1zm14 1h1v1h-1zm-172 2h1v1h-1zm19 1h1v1h-1zm150 0h1v1h-1zm-86 1h1v1h-1zm-65 1h1v1h-1zm32 0h1v1h-1zm-1 3h1v1h-1zm23 0h1v1h-1zm89 0h1v1h-1zm-184 1h1v1h-1zm1 2h1v1h-1zm169 2h1v1h-1zm-167 1h1v1h-1zm118 1h1v1h-1zm37 0h1v1h-1zm-91 1h1v1h-1zm62 0h1v1h-1zm21 0h1v1h-1zm-85 2h1v1h-1zm-58 1h1v1h-1zm55 2h1v1h-1zm-1 1h1v1h-1zm-6 4h1v1h-1zm-37 1h1v1h-1z"/>
		<path id="Path 6" class="s6" d="m68 19v-1h4v1zm-7 0h1v1h-1zm-4 1h1v1h-1zm30 2h1v1h-1zm104 15h1v1h-1zm11 2h1v1h-1zm-168 1h1v1h-1zm107 0h1v1h-1zm-3 1h1v1h-1zm67 7h1v1h-1zm-155 3v-2h1v23h-1zm146 0v-1h8v1zm-65 1h1v1h-1zm76 0h1v1h-1zm12 0h1v1h-1zm-118 1h1v1h-1zm129 1h1v1h-1zm-140 3h1v1h-1zm10 0h1v1h-1zm36 0h1v1h-1zm66 1h1v1h-1zm-111 2h1v1h-1zm8 0h1v1h-1zm-1 1h1v1h-1zm-33 2h1v1h-1zm27 0h1v1h-1zm-10 3v-2h1v2zm18-1h1v1h-1zm23 1h1v1h-1zm88 1h1v1h-1zm-127 1h1v1h-1zm15 0h1v1h-1zm117 0h1v1h-1zm-96 1h1v1h-1zm87 0h1v1h-1zm-141 3v-2h1v2zm74-2h1v1h-1zm-63 2h1v1h-1zm48 0h1v1h-1zm97 0h1v1h-1zm-58 11h1v1h-1zm19 0h1v1h-1zm-122 14h1v1h-1z"/>
		<path id="Path 7" class="s7" d="m78 19h1v1h-1zm4 1h1v1h-1zm14 8h1v1h-1zm4 4h1v1h-1zm57 5h1v1h-1zm-6 1h1v1h-1zm45 0h1v1h-1zm10 2h1v1h-1zm3 1h1v1h-1zm-176 1h1v1h-1zm102 0h1v1h-1zm-28 2h1v1h-1zm110 0h1v1h-1zm4 2h1v1h-1zm-149 2h1v1h-1zm-15 21v-20h1v20zm45-20h1v1h-1zm-72 4h1v1h-1zm178 1h1v1h-1zm9 1h1v1h-1zm-120 2h1v1h-1zm123 4h1v1h-1zm-190 2h1v1h-1zm201 0h1v1h-1zm-107 1h1v1h-1zm86 0h1v1h-1zm3 0h1v1h-1zm-96 1h1v1h-1zm-24 2h1v1h-1zm115 0h1v1h-1zm-134 2h1v1h-1zm136 0h1v1h-1zm17 0h1v1h-1zm-150 2v-1h2v1zm128-1h1v1h-1zm12 0h1v1h-1zm8 0h1v1h-1zm-151 2h1v1h-1zm4 0h1v1h-1zm-45 2h1v1h-1zm101 3h1v1h-1zm3 1h1v1h-1zm73 0h1v1h-1zm-66 2h1v1h-1zm59 0h1v1h-1zm-54 1h1v1h-1zm49 0h1v1h-1zm-42 1h1v1h-1zm35 0h1v1h-1zm-26 1h1v1h-1zm17 0h1v1h-1zm-82 1h1v1h-1zm-54 6h1v1h-1zm41 4h1v1h-1zm-29 2h1v1h-1z"/>
		<path id="Path 8" class="s8" d="m55 21h1v1h-1zm34 2h1v1h-1zm-40 1h1v1h-1zm49 6h1v1h-1zm1 1h1v1h-1zm4 5h1v1h-1zm87 1h1v1h-1zm-158 8h1v1h-1zm96 0h1v1h-1zm-3 2h1v1h-1zm-45 1h1v1h-1zm60 1h1v1h-1zm-45 1h1v1h-1zm-28 2h1v1h-1zm72 0h1v1h-1zm76 0h1v1h-1zm7 0h1v1h-1zm-126 2h1v1h-1zm120 0h1v1h-1zm-151 3h1v1h-1zm63 0h1v1h-1zm-26 1h1v1h-1zm109 4h1v1h-1zm-79 2h1v1h-1zm98 1h1v1h-1zm-99 1h1v1h-1zm81 0h1v1h-1zm-139 1h1v1h-1zm151 1h1v1h-1zm-103 1h1v1h-1zm74 0h1v1h-1zm-163 2h1v1h-1zm94 2v-1h14v1h-12-1zm63 0v-1h16 1 1 1v1zm30 0v-1h3v1h-1-1zm-87 3h1v1h-1zm81 1h1v1h-1zm-72 2h1v1h-1zm-38 1h1v1h-1zm63 3h1v1h-1zm15 0h1v1h-1zm-84 4h1v1h-1zm-5 4h1v1h-1zm-37 4h1v1h-1zm23 2h1v1h-1z"/>
		<path id="Path 9" class="s9" d="m62 19h1v1h-1zm22 2h1v1h-1zm8 4h1v1h-1zm-46 1h1v1h-1zm51 3h1v1h-1zm61 8h1v1h-1zm31 0h1v1h-1zm-85 1h1v1h-1zm48 0h1v1h-1zm-6 1h1v1h-1zm55 0h1v1h-1zm11 3h1v1h-1zm7 3h1v1h-1zm-111 2h1v1h-1zm114 0h1v1h-1zm-172 1h1v1h-1zm7 0h1v1h-1zm83 0h1v1h-1zm-53 24v-23h1v23zm137-22v-1h1 1v1h-1zm-102 0h1v1h-1zm18 0h1v1h-1zm80 0h1v1h-1zm-190 4h1v1h-1zm99 1h1v1h-1zm66 2h1v1h-1zm-96 2h1v1h-1zm-69 3h1v1h-1zm35 2h1v1h-1zm-34 3h1v1h-1zm35 0h1v1h-1zm15 1h1v1h-1zm-8 4h1v1h-1zm142 4h1v1h-1zm-9 3h1v1h-1zm-168 3h1v1h-1zm119 0h1v1h-1zm33 0h1v1h-1zm-23 2v-1h2v1zm12 0v-1h2v1zm-81 2h1v1h-1zm-49 6h1v1h-1zm2 1h1v1h-1zm30 3h1v1h-1zm-19 1h1v1h-1z"/>
		<path id="Path 10" class="s10" d="m77 19h1v1h-1zm-19 1h1v1h-1zm-5 2h1v1h-1zm37 2h1v1h-1zm-45 3h1v1h-1zm150 11h1v1h-1zm-56 3h1v1h-1zm-69 8h1v1h-1zm135 0h1v1h-1zm-130 1h1v1h-1zm120 7v-6h1v6zm-94-5h1v1h-1zm18 0h1v1h-1zm-46 1h1v1h-1zm11 1h1v1h-1zm137 0h1v1h-1zm-191 1h1v1h-1zm35 1h1v1h-1zm16 0h1v1h-1zm19 0h1v1h-1zm16 1h1v1h-1zm103 0h1v1h-1zm12 6v-6h1v6zm-141-5h1v1h-1zm45 1h1v1h-1zm84 0h1v1h-1zm-121 1h1v1h-1zm-68 1h1v1h-1zm165 8v-8h1v8zm-94-7h1v1h-1zm24 0h1v1h-1zm-40 4v-2h1v2zm7-2h1v1h-1zm122 1h1v1h-1zm-114 1h1v1h-1zm123 0h1v1h-1zm-93 2h1v1h-1zm-31 1h1v1h-1zm107 1h1v1h-1zm-18 2h1v1h-1zm20 0h1v1h-1zm-82 1h1v1h-1zm95 0h1v1h-1zm-91 2h1v1h-1zm-26 3h1v1h-1zm-68 1h1v1h-1zm114 2h1v1h-1zm47 0h1v1h-1zm-39 1h1v1h-1zm31 0h1v1h-1zm-20 2v-1h2v1zm8 0v-1h2v1zm-124 10h1v1h-1zm31 1h1v1h-1zm-7 2h1v1h-1z"/>
		<path id="Path 11" class="s11" d="m38 34h1v1h-1zm121 3h1v1h-1zm29 0h1v1h-1zm-46 3h1v1h-1zm63 0h1v1h-1zm3 1h1v1h-1zm-102 1h1v1h-1zm27 1h1v1h-1zm71 5h1v1h-1zm9 0h1v1h-1zm8 0h1v1h-1zm-155 5h1v1h-1zm18 0h1v1h-1zm34 0h1v1h-1zm20 1h1v1h-1zm-41 2h1v1h-1zm112 0h1v1h-1zm1 2h1v1h-1zm-84 2h1v1h-1zm70 1v-1h6v1zm-62 0h1v1h-1zm-18 1h1v1h-1zm93 3h1v1h-1zm-124 1h1v1h-1zm-5 3h1v1h-1zm-10 2h1v1h-1zm24 0h1v1h-1zm115 0h1v1h-1zm-130 1h1v1h-1zm61 0h1v1h-1zm-34 2h1v1h-1zm32 4h1v1h-1zm7 2h1v1h-1zm57 0h1v1h-1zm-31 4v-1h6v1zm-81 8h1v1h-1zm-2 1h1v1h-1zm-29 3h1v1h-1z"/>
		<path id="Path 12" class="s12" d="m63 19h1v1h-1zm13 0h1v1h-1zm5 1h1v1h-1zm-25 1h1v1h-1zm-5 2h1v1h-1zm42 3h1v1h-1zm9 9h1v1h-1zm-66 2h1v1h-1zm124 0h1v1h-1zm27 0h1v1h-1zm-34 1h1v1h-1zm41 0h1v1h-1zm-47 1h1v1h-1zm53 0h1v1h-1zm-166 2h1v1h-1zm102 1h1v1h-1zm75 0h1v1h-1zm3 1h1v1h-1zm-83 1h1v1h-1zm-82 6v-1h1v2h-1zm155-1h1v1h-1zm-108 4h1v1h-1zm133 0h1v1h-1zm-145 2h1v1h-1zm33 0h1v1h-1zm-87 1h1v1h-1zm0 5v-2h1v2zm60-2h1v1h-1zm121 1h1v1h-1zm-120 1h1v1h-1zm42 2h1v1h-1zm-10 2h1v1h-1zm-92 1h1v1h-1zm42 0h1v1h-1zm49 1h1v1h-1zm-29 1h1v1h-1zm-35 2v-1h8v1zm26-1h1v1h-1zm46 0h1v1h-1zm86 0h1v1h-1zm-133 1h1v1h-1zm-46 3v-1h6v1zm14 0v-1h15v1zm21-1h1v1h-1zm16 0h1v1h-1zm8 1v-1h2v1zm8 0v-1h3v1h-1zm114-1h1v1h-1zm-90 2h1v1h-1zm-94 1h1v1h-1zm183 0h1v1h-1zm-112 1h1v1h-1zm28 0h1v1h-1zm76 2h1v1h-1zm-67 1h1v1h-1zm63 0h1v1h-1zm-54 2h1v1h-1zm45 0h1v1h-1zm-37 1h1v1h-1zm29 0h1v1h-1zm-125 15h1v1h-1z"/>
		<path id="Path 13" class="s13" d="m64 19h1v1h-1zm-16 6h1v1h-1zm-8 7h1v1h-1zm-1 1h1v1h-1zm122 4h1v1h-1zm25 0h1v1h-1zm-151 2h1v1h-1zm-2 4h1v1h-1zm183 1h1v1h-1zm-109 1h1v1h-1zm-75 1h1v1h-1zm44 1h1v1h-1zm-27 1h1v1h-1zm22 0h1v1h-1zm24 1h1v1h-1zm-52 23v-21h1v21zm58-21h1v1h-1zm30 0h1v1h-1zm92 0h1v1h-1zm-143 1h1v1h-1zm148 0h1v1h-1zm-155 2h1v1h-1zm9 2h1v1h-1zm-52 3v-2h1v2zm72 0h1v1h-1zm100 1h1v1h-1zm-119 2h1v1h-1zm138 0h1v1h-1zm1 2h1v1h-1zm-157 1h1v1h-1zm150 2h1v1h-1zm-148 2h1v1h-1zm-35 1h1v1h-1zm4 2h1v1h-1zm53 0h1v1h-1zm6 0h1v1h-1zm124 2h1v1h-1zm-5 2h1v1h-1zm-179 1h1v1h-1zm100 0h1v1h-1zm11 3h1v1h-1zm14 2h1v1h-1zm27 0h1v1h-1zm-131 13h1v1h-1zm24 1h1v1h-1zm-4 1h1v1h-1z"/>
		<path id="Path 14" class="s14" d="m75 19h1v1h-1zm-16 1h1v1h-1zm27 2h1v1h-1zm-44 8h1v1h-1zm120 7h1v1h-1zm23 0h1v1h-1zm-80 3h1v1h-1zm35 1h1v1h-1zm-65 6h1v1h-1zm2 0h1v1h-1zm49 0h1v1h-1zm-5 3h1v1h-1zm83 0h1v1h-1zm-169 22v-21h1v21zm39-21h1v1h-1zm10 1h1v1h-1zm-11 3h1v1h-1zm27 0h1v1h-1zm36 3h1v1h-1zm-46 14v-12h1v1 1 10zm11-9h1v1h-1zm16 1h1v1h-1zm-44 1h1v1h-1zm45 1h1v1h-1zm-33 1h1v1h-1zm15 0h1v1h-1zm-34 2h1v1h-1zm65 1v-1h9v1zm-63 0h1v1h-1zm-18 2h1v1h-1zm16 0h1v1h-1zm32 0h1v1h-1zm5 0h1v1h-1zm109 5h1v1h-1zm-11 3h1v1h-1zm-49 1h1v1h-1zm43 0h1v1h-1zm-34 1h1v1h-1zm25 0h1v1h-1zm-122 15h1v1h-1z"/>
		<path id="Path 15" class="s15" d="m65 19h1v1h-1zm9 0h1v1h-1zm6 1h1v1h-1zm3 1h1v1h-1zm5 2h1v1h-1zm-38 1h1v1h-1zm44 3h1v1h-1zm-53 4h1v1h-1zm60 3h1v1h-1zm-64 2h1v1h-1zm126 2v-1h1 1v1zm21-1h1v1h-1zm-30 1h1v1h-1zm39 0h1v1h-1zm14 3h1v1h-1zm-133 6h1v1h-1zm4 0h1v1h-1zm49 1v-1h1 12v1zm61 0l16-1v1h-1-14zm17 0v-1h8v1h-7zm-127 2h1v1h-1zm148 0h1v1h-1zm-106 1h1v1h-1zm86 0h1v1h-1zm21 0h1v1h-1zm-131 1h1v1h-1zm43 1h1v1h-1zm68 0h1v1h-1zm1 2h1v1h-1zm22 0h1v1h-1zm-157 1h1v1h-1zm64 0h1v1h-1zm59 2v-1h6v1zm-80 0h1v1h-1zm-18 1h1v1h-1zm113 2h1v1h-1zm-138 3h1v1h-1zm-42 1h1v1h-1zm61 0h1v1h-1zm119 3h1v1h-1zm-15 2v-1h9v1zm-97 0h1v1h-1zm111 0h1v1h-1zm-130 2h1v1h-1zm7 0h1v1h-1zm60 8h1v1h-1zm6 1h1v1h-1zm9 2v-1h2v1h-1zm23-1h1v1h-1zm-120 15h1v1h-1zm9 1v-1h2v1h-1z"/>
		<path id="Path 16" class="s16" d="m66 20v-1h1 1v1zm7-1h1v1h-1zm-13 1h1v1h-1zm31 5h1v1h-1zm-47 3h1v1h-1zm-1 1h1v1h-1zm56 3h1v1h-1zm1 1h1v1h-1zm3 4h1v1h-1zm62 1v-1h2v1zm16 0v-1h2 1v1zm-26 0h1v1h-1zm-7 1h1v1h-1zm51 0h1v1h-1zm-56 1h1v1h-1zm61 0h1v1h-1zm-63 1h1v1h-1zm-107 1h1v1h-1zm103 0h1v1h-1zm73 0h1v1h-1zm-104 1h1v1h-1zm28 0h1v1h-1zm79 0h1v1h-1zm-84 2h1v1h-1zm89 0h1v1h-1zm-111 1h1v1h-1zm20 0h1v1h-1zm93 0h1v1h-1zm-188 1h1v1h-1zm172 0h1v1h-1zm17 0h1v1h-1zm-34 25l1-24v1 23zm-111-22h1v1h-1zm129 0h1v1h-1zm-174 1h1v1h-1zm109 0h1v1h-1zm82 2h1v1h-1zm-1 2h1v1h-1zm-1 1h1v1h-1zm-147 2v-1h1v2h-1zm146 0h1v1h-1zm-117 2h1v1h-1zm33 0h1v1h-1zm-62 3v-1h1v2h-1zm28 1h1v1h-1zm32 0h1v1h-1zm-1 1h1v1h-1zm81 0h1v1h-1zm1 1h1v1h-1zm-83 1h1v1h-1zm-31 1h1v1h-1zm20 1v-1h2v1h-1zm-27 0h1v1h-1zm132 1v-1h2v1h-1zm-158 2v-2h1v1 1zm15-1h1v1h-1zm135 0h1v1h-1zm-174 1h1v1h-1zm63 1h1v1h-1zm94 7h1v1h-1zm-6 1h1v1h-1zm-30 1h1v1h-1zm19 1v-1h2v1h-1zm-117 15v-1h2v1h-1zm7-1h1v1h-1z"/>
		<path id="Path 17" fill-rule="evenodd" class="s17" d="m68 20v-1h4 1v1zm11 0h1v1h-1zm-22 1h1v1h-1zm-3 1h1v1h-1zm31 0h1v1h-1zm-33 1h1v1h-1zm37 1h1v1h-1zm-42 2h1v1h-1zm-1 1h1v1h-1zm49 1h1v1h-1zm1 1h1v1h-1zm1 1h1v1h-1zm1 1h1v1h-1zm69 7v-1h2zm14 0l-2-1h2zm-145 0h1v1h-1zm156 0h1v1h-1zm-88 1h1v1h-1zm1 2h1v1h-1zm101 0h1v1h-1zm-173 7v-1l16 1zm17 0h8-1-6zm38 0h7-1zm15 0l4-1h1v1zm121 2h1v1h-1zm-145 1h1v1h-1zm-48 1h1v1h-1zm43 0h1v1h-1zm149 0h1v1h-1zm-105 2h1v1h-1zm-1 2h1v1h-1zm92 1h1v1h-1zm-136 5v-3h1v3zm137-3h1v1h-1zm-76 3h1v1h-1zm-69 4h1v1h-1zm147 1h1v1h-1zm-146 1h1v1h-1zm19 0h1v1h-1zm130 0h1v1h-1zm-4 1h1v1h-1zm5 1h1v1h-1zm-147 1h1v1h-1zm-34 1h1v1h-1zm32 0h1v1h-1zm4 0h1v1h-1zm19 0h1v1h-1zm4 0h1v1h-1zm93 0h1v1h-1zm-60 1h1v1h-1zm93 0h1v1h-1zm-55 10v-1l2 1h-1zm16 0l2-1v1h-1zm-110 15l2-1v1z"/>
		<path id="Path 18" fill-rule="evenodd" class="s18" d="m60 21l1-1h18l1 1h3l1 1h1l1 1h2l2 2h1l1 1h1l10 10v1l1 1v1l1 1v1l1 1v1l1 1v3l-4 1-1 1v1l-1 1v3l-1 1v3l-1 1h-1v-3l-1-1v-3l-1-1v-2l-1-1h-7l-1 1v23l1 1h2l1-1v-10h1v3l1 1v3l1 1v2l1 1h3l1-1v-1l1-1v-1l1-1v-3l1-1v-3h1v11l1 1h2v2l-1 1v1l-1 1v1l-1 1v1l-10 10h-1l-1 1h-1l-1 1h-1l-2 2h-2l-1 1h-3l-1 1h-6l-2 1h-2l-1-1h-7l-1-1h-2l-1-1h-2l-1-1h-1l-1-1h-1l-1-1h-1l-2-2h-1l-7-7v-1l-2-2v-1l-1-1v-1l-1-1v-1l-2-2v-3l-1-1v-4l-1-1v-11l1-1v-1h3v21l1 1h7l1-1v-21h6v21l1 1h16l1-1v-1h1l1 1h1l1 1h8l1-1h1l4-4v-4l-2-2h-1l-1 1v4l-1 1v1h-1l-1 1h-3l-2-2v-15l1-1v-1h1l1-1h1l3 3v3l1 1 1-1h1l1-1v-3l-4-4h-1l-1-1h-5l-1 1h-2l-1 1v1h-1l-3 3v2l-1 1v10l1 1v2h-8v-21h-9l-16-1v-3l2-2v-2l2-2v-1l1-1v-1l7-7h1l3-3h1l1-1h1l1-1h1l1-1h2l1-1zm107 17l2-1h10l2 1h11l1 1h6l1 1h4l1 1h1l1 1h3l1 1h2l1 1h2l1 1h1l1 1h1l1 1v2l-1 1v1l-1 1v1l-1 1v1h-1v-1l-1-1v-1l-2-2v-2l-1-1h-9l-16 1-1 24 1 1h20l4-4v-1l1-1v-1h1l1 1v1l1 1v1l3 3h1v1h-1l-1 1h-1l-1 1h-2l-1 1h-1l-1 1h-2l-1 1h-3l-1 1h-4l-1 1h-5l-1 1h-10l-2 1h-14l-2-1h-10l-1-1h-5l-1-1h-4l-1-1h-3l-1-1h-2l-1-1h-1l-1-1h-2l-1-1h-1l-1-1h-1v-1h12l1-1v-2l-1-1h-9v-1l1-1v-1l2-2v-1l1-1v-1l1-1v-1l1-1v-1l1-1v-1l2-2v-1l1-1v-3l-1-1h-12v-1h1l1-1h1l1-1h2l1-1h2l1-1h3l1-1h1l1-1h4l1-1h6l1-1zm-19 11l-1 1h-1l-1 1v1l-2 2v12l2 2v1l3 3h5v-1h-1l-2-2v-4l-1-3v-4l1-3v-4l1-1h1l1-1h1l3 3v16l-1 1v1l-1 1h-1v1h4l2-2h1v-1l2-2v-2l1-1v-8l-1-1v-1l-1-1v-1l-3-3h-2l-1-1h-5l-1 1zm21 23v-14h1l1 1v1l3 3v1l2 2v1l2 2v1l2 2h5v-23h-2v15h-1l-1-1v-1l-3-3v-1l-1-1v-1l-3-3v-1l-2-2v-1h-5v23zm-16 1h1v-1h-1zm71-22l1-1h1l4 4v1l1 1v8l-1 1v1l-3 3h-2v-1l-1-1v-1l-1-1v-1l-1-1v-1l-2-2v-3l2-2v-1l2-2zm-103 0h10v2l-2 2v1l-1 1v1l-2 2v1l-1 1v1l-2 2v1l-1 1v1h-2l-1-1v-1l-1-1v-1l-1-1v-1l-1-1v-2l1-1v-1l1-1v-1l1-1v-1zm75 6v-6h10l1 1v1l1 1v1l1 1v1l1 1v1l1 1v3l-2 2v1l-1 1v1l-1 1v1h-1l-1-1h-9v-8h6l1-1v-2l-1-1z"/>
		<path id="Path 19" fill-rule="evenodd" class="s0" d="m150 48h1v1h-1zm24 5h1v1h-1zm-102 2h1v1h-1zm77 3l1-3v3zm-60-2h1v1h-1zm61 9l-1-3h1zm-50-2h1v1h-1zm-34 3h1v1h-1zm87 5h1v1h-1zm-1 1h1v1h-1z"/>
		<path id="Path 20" class="s1" d="m156 48h1v1h-1zm11 1v-1h4v1zm16 0v-1h2v1zm-11 1h1v1h-1zm-99 1h1v1h-1zm17 5h1v1h-1zm59 6v-4h1v4zm29-3h1v1h-1zm1 1h1v1h-1zm-95 7h1v1h-1zm15 0h1v1h-1zm57 1h1v1h-1zm-73 1h1v1h-1zm-12 2h1v1h-1zm83 1h1v1h-1z"/>
		<path id="Path 21" class="s2" d="m31 51h5-1-3zm129-1h1v1h-1zm13 1h1v1h-1zm-17 1h1v1h-1zm-75 1h1v1h-1zm81 0h1v1h-1zm-70 9h1v1h-1zm1 4h1v1h-1zm62 4h1v1h-1zm-57 1h1v1h-1zm53 1h1v1h-1z"/>
		<path id="Path 22" class="s3" d="m149 48h1v1h-1zm-2 1h1v1h-1zm-73 1h1v1h-1zm121 0h1v1h-1zm-34 1h1v1h-1zm-78 4h1v1h-1zm80 0h1v1h-1zm14 2h1v1h-1zm-86 2h1v1h-1zm90 4h1v1h-1zm-113 6h1v1h-1zm82 0h1v1h-1zm5 3h1v1h-1z"/>
		<path id="Path 23" class="s4" d="m157 48h1v1h-1zm14 0h1v1h-1zm-27 4h1v1h-1zm12 1h1v1h-1zm19 1h1v1h-1zm-33 8v-3h1v3zm14 5h1v1h-1z"/>
		<path id="Path 24" class="s5" d="m153 49h1v1h-1zm-3 2h1v1h-1zm-7 2h1v1h-1zm13 1h1v1h-1zm-14 4h1v1h-1zm21 7h1v1h-1zm-7 1h1v1h-1zm-87 4h1v1h-1zm25 0h1v1h-1zm57 0h1v1h-1zm-1 2h1v1h-1z"/>
		<path id="Path 25" class="s6" d="m79 50h1v1h-1zm1 1h1v1h-1zm62 6h1v1h-1zm53 3h1v1h-1zm-53 2h1v1h-1zm14 3h1v1h-1zm19 1h1v1h-1zm-94 5h1v1h-1z"/>
		<path id="Path 26" class="s7" d="m148 48h1v1h-1zm11 1h1v1h-1zm4 5h1v1h-1zm-7 3v-2h1v2zm24 4h1v1h-1zm-38 2h1v1h-1zm31 0h1v1h-1zm9 0h1v1h-1zm-26 1h1v1h-1zm-89 4h1v1h-1zm77 0h1v1h-1zm6 0h1v1h-1zm11 1h1v1h-1zm16 0h1v1h-1zm-21 3h1v1h-1z"/>
		<path id="Path 27" class="s8" d="m153 47h1v1h-1zm21 5h1v1h-1zm2 3h1v1h-1zm-34 1h1v1h-1zm14 1h1v1h-1zm13 1h1v1h-1zm-13 6v-2h1v2zm-2 6h1v1h-1zm13 3v-1h2v1zm13 0v-1h5v1z"/>
		<path id="Path 28" class="s9" d="m152 47h1v1h-1zm-7 3h1v1h-1zm5 2h1v1h-1zm12 0h1v1h-1zm-6 10v-4h1v4zm22-4h1v1h-1zm-15 8h1v1h-1zm-20 1h1v1h-1zm17 3h1v1h-1zm-11 2h1v1h-1z"/>
		<path id="Path 29" class="s10" d="m154 47h1v1h-1zm4 1h1v1h-1zm14 1h1v1h-1zm10 13v-13h1v14h-1zm-38-11h1v1h-1zm25 21v-13h1v1 1 11zm10-13h1v1h-1zm-37 5h1v1h-1zm8 3h1v1h-1zm5 2h1v1h-1zm-110 20h1v1h-1zm48 1h1v1h-1z"/>
		<path id="Path 30" class="s11" d="m151 47h1v1h-1zm-64 1h1v1h-1zm95 0h1v1h-1zm-31 2h1v1h-1zm-1 3h1v1h-1zm27 3h1v1h-1zm-13 6v-3h1v3zm6-3h1v1h-1zm-88 3h1v1h-1zm3 1h1v1h-1zm93 8h1v1h-1zm-21 1h1v1h-1zm22 0h1v1h-1zm-77 9h1v1h-1z"/>
		<path id="Path 31" class="s12" d="m155 47h1v1h-1zm-53 1h1v1h-1zm44 1h1v1h-1zm20 23v-23h1v23zm48-22h1v1h-1zm-51 3h1v1h-1zm55 0h1v1h-1zm-76 2h1v1h-1zm22 3h1v1h-1zm8 4h1v1h-1zm-22 4h1v1h-1zm2 4h1v1h-1zm-51 12h1v1h-1z"/>
		<path id="Path 32" class="s13" d="m166 48h1v1h-1zm19 24v-23h1v23zm-30-21h1v1h-1zm64 0h1v1h-1zm-89 2h1v1h-1zm45 0h1v1h-1zm-25 1h1v1h-1zm14 8h1v1h-1zm17 0h1v1h-1zm-31 3h1v1h-1zm24 0h1v1h-1zm-12 3h1v1h-1zm45 0h1v1h-1zm-48 3h1v1h-1zm-126 2h1v1h-1zm6 10h1v1h-1zm1 1h1v1h-1zm8 7h1v1h-1z"/>
		<path id="Path 33" class="s14" d="m150 47h1v1h-1zm-3 1h1v1h-1zm38 0h1v1h-1zm-24 2h1v1h-1zm12 0h1v1h-1zm42 1h1v1h-1zm-72 1h1v1h-1zm73 1h1v1h-1zm-66 5v-3h1v3zm14-1h1v1h-1zm-37 1h1v1h-1zm23 7v-3h1v3zm60-2h1v1h-1zm-68 2h1v1h-1zm34 3h1v1h-1zm-101 1h1v1h-1zm69 0h1v1h-1zm1 1h1v1h-1zm8 0h1v1h-1zm16 2h1v1h-1zm-128 13h1v1h-1zm1 1h1v1h-1zm1 1h1v1h-1z"/>
		<path id="Path 34" class="s15" d="m156 47h1v1h-1zm11 1v-1h4v1zm16 0v-1h2v1zm-102 0h1v1h-1zm1 1h1v1h-1zm-14 1h1v1h-1zm86 0h1v1h-1zm-87 1h1v1h-1zm95 0h1v1h-1zm-34 5h1v1h-1zm-29 2h1v1h-1zm51 4v-4h1v4zm14 1h1v1h-1zm-45 4h1v1h-1zm-45 1h1v1h-1zm81 0h1v1h-1zm-15 1h1v1h-1zm8 3h1v1h-1zm18 0h1v1h-1zm19 0h1v1h-1zm-148 8h1v1h-1zm7 8h1v1h-1zm6 4h1v1h-1zm2 1h1v1h-1zm34 1h1v1h-1z"/>
		<path id="Path 35" class="s16" d="m140 47h1v1h-1zm9 0h1v1h-1zm22 0h1v1h-1zm-76 1h1v1h-1zm64 0h1v1h-1zm13 0h1v1h-1zm-89 2h1v1h-1zm18 0h1v1h-1zm73 1h1v1h-1zm-19 1h1v1h-1zm-55 2h1v1h-1zm29 0h1v1h-1zm13 0h1v1h-1zm-77 1h1v1h-1zm32 0h1v1h-1zm67 1h1v1h-1zm14 1h1v1h-1zm24 0h1v1h-1zm-22 3h1v1h-1zm-9 1h1v1h-1zm-87 1h1v1h-1zm89 2h1v1h-1zm57 0h1v1h-1zm-7 1h1v1h-1zm-15 1h1v1h-1zm21 0h1v1h-1zm-66 1h1v1h-1zm12 0h1v1h-1zm49 0h1v1h-1zm3 1h1v1h-1zm-148 1h1v1h-1zm126 0h1v1h-1zm-44 1h1v1h-1zm16 0h1v1h-1zm-31 1h1v1h-1zm7 2h1v1h-1zm-119 1h1v1h-1zm97 1h1v1h-1zm85 0h1v1h-1zm-77 3h1v1h-1zm-36 1h1v1h-1zm-3 4h1v1h-1zm-4 4h1v1h-1zm-1 1h1v1h-1zm-1 1h1v1h-1zm-47 1h1v1h-1zm44 1h1v1h-1zm-4 2h1v1h-1zm-4 2h1v1h-1zm-23 1h1v1h-1z"/>
		<path id="Path 36" class="s17" d="m73 47h1v1h-1zm6 0h1v1h-1zm78 0h1v1h-1zm9 0h1v1h-1zm16 0h1v1h-1zm3 0h1v1h-1zm28 0h1v1h-1zm-143 1h1v1h-1zm90 1h1v1h-1zm60 0h1v1h-1zm-76 1h1v1h-1zm-60 1h1v1h-1zm12 0h1v1h-1zm55 0h1v1h-1zm-85 1h1v1h-1zm89 1h1v1h-1zm22 2h1v1h-1zm2 3h1v1h-1zm-53 1h1v1h-1zm44 1h1v1h-1zm50 0h1v1h-1zm-104 1h1v1h-1zm9 0h1v1h-1zm96 0h1v1h-1zm-104 2h1v1h-1zm7 0h1v1h-1zm48 0h1v1h-1zm50 0h1v1h-1zm-191 1h1v1h-1zm92 0h1v1h-1zm41 0h1v1h-1zm45 0h1v1h-1zm-91 1h1v1h-1zm4 1h1v1h-1zm20 0h1v1h-1zm-61 1h1v1h-1zm147 0h1v1h-1zm-85 1h1v1h-1zm-111 1h1v1h-1zm130 0h1v1h-1zm14 0h1v1h-1zm-18 3h1v1h-1zm20 0h1v1h-1zm-26 1h1v1h-1zm-23 1h1v1h-1zm89 0h1v1h-1zm-113 1h1v1h-1zm-70 1h1v1h-1zm99 0h1v1h-1zm79 0h1v1h-1zm-109 1h1v1h-1zm32 0h1v1h-1zm75 0h1v1h-1zm-175 1h1v1h-1zm172 0h1v1h-1zm-65 1h1v1h-1zm61 0h1v1h-1zm-56 1h1v1h-1zm51 0h1v1h-1zm-161 1h1v1h-1zm116 0h1v1h-1zm39 0h1v1h-1zm-94 3h1v1h-1zm-1 1h1v1h-1zm-1 1h1v1h-1zm-8 6h1v1h-1zm-35 2h1v1h-1zm3 1h1v1h-1zm22 1h1v1h-1zm-11 1h1v1h-1z"/>
		<path id="Path 37" class="s18" d="m152 51v-1h1 1l1 1v1 1l1 1v1 2 1 4 2 1 1 1l-1 1v1 1h-1-1-1l-1-1v-1-1-1-1-3-4-3-1-1-1z"/>
		<path id="Path 38" class="s0" d="m154 49h1v1h-1zm-4 1h1v1h-1zm6 1h1v1h-1zm13 6h1v1h-1zm4 5h1v1h-1zm-10 2h1v1h-1zm12 1h1v1h-1zm-31 2h1v1h-1zm17 1h1v1h-1zm18 3h1v1h-1z"/>
		<path id="Path 39" class="s1" d="m170 58h1v1h-1zm12 6h1v1h-1zm-5 4h1v1h-1zm-18 2h1v1h-1z"/>
		<path id="Path 40" class="s2" d="m143 66h1v1h-1zm33 1h1v1h-1zm-18 4h1v1h-1z"/>
		<path id="Path 41" class="s3" d="m152 49h1v1h-1zm20 12h1v1h-1zm2 3h1v1h-1zm-29 5h1v1h-1zm33 1h1v1h-1z"/>
		<path id="Path 42" class="s4" d="m146 70h1v1h-1z"/>
		<path id="Path 43" class="s5" d="m155 50h1v1h-1zm7 17h1v1h-1z"/>
		<path id="Path 44" class="s6" d="m171 60h1v1h-1z"/>
		<path id="Path 45" class="s9" d="m147 71h1v1h-1z"/>
		<path id="Path 46" class="s16" d="m151 69h1v1h-1z"/>
		<path id="Path 47" class="s17" d="m155 67h1v1h-1z"/>
	</g>
</svg>